<mxfile host="app.diagrams.net" modified="2024-01-20T05:56:11.513Z" agent="Mozilla/5.0 (X11; Linux x86_64; rv:121.0) Gecko/20100101 Firefox/121.0" version="22.1.21" etag="wpsG7-nGnRhTbAZ7Pgpe" type="github">
  <diagram name="第 1 页" id="UZRz5LIh3m6_f_zbAk0x">
    <mxGraphModel>
      <root>
        <mxCell id="0" />
        <mxCell id="1" parent="0" />
      </root>
    </mxGraphModel>
  </diagram>
</mxfile>
